<?xml version="1.0" standalone="no"?>
<!DOCTYPE svg PUBLIC "-//W3C//DTD SVG 20010904//EN"
 "http://www.w3.org/TR/2001/REC-SVG-20010904/DTD/svg10.dtd">
<svg version="1.0" xmlns="http://www.w3.org/2000/svg"
 width="225.000000pt" height="225.000000pt" viewBox="0 0 225.000000 225.000000"
 preserveAspectRatio="xMidYMid meet">
<metadata>
Created by potrace 1.16, written by Peter Selinger 2001-2019
</metadata>
<g transform="translate(0.000000,225.000000) scale(0.100000,-0.100000)"
fill="#000000" stroke="none">
<path d="M920 2140 c-270 -70 -490 -289 -562 -559 -26 -99 -29 -276 -4 -376 9
-38 37 -110 61 -160 136 -273 397 -435 700 -435 328 0 610 194 730 501 13 33
31 105 41 160 64 386 -195 773 -581 869 -108 27 -281 26 -385 0z m99 -87 c-18
-20 -25 -31 -14 -23 11 8 28 26 39 38 18 23 23 24 115 18 217 -12 394 -109
529 -287 87 -116 132 -253 132 -411 0 -211 -72 -375 -229 -520 -346 -320 -900
-215 -1116 212 -88 173 -88 437 1 612 100 199 276 337 489 383 90 20 92 19 54
-22z"/>
<path d="M976 1789 c-242 -83 -358 -355 -250 -584 41 -85 114 -159 202 -202
74 -37 79 -38 186 -38 108 0 113 1 187 37 92 45 157 112 203 208 29 60 31 73
31 175 0 103 -2 114 -31 176 -55 115 -150 199 -264 233 -75 22 -191 20 -264
-5z m225 -166 c39 -31 82 -58 97 -59 74 -8 64 -114 -10 -114 -21 0 -33 8 -45
28 -9 15 -38 45 -66 66 l-50 40 -44 -49 -45 -49 24 -18 c13 -10 37 -22 53 -26
17 -4 34 -17 39 -28 5 -11 37 -39 72 -63 35 -25 64 -48 64 -53 0 -15 -172
-208 -184 -208 -7 0 -42 25 -78 55 -37 30 -80 58 -98 61 -72 15 -62 114 12
114 21 0 33 -8 47 -30 10 -17 39 -46 64 -66 l46 -36 40 43 c22 24 41 47 41 51
0 13 -56 46 -85 50 -21 2 -34 11 -43 31 -7 15 -38 45 -68 68 -37 27 -52 44
-47 53 20 34 169 195 181 196 7 0 45 -26 83 -57z"/>
<path d="M490 454 c0 -86 2 -95 18 -92 11 2 18 14 20 36 3 26 8 32 27 32 46 0
70 53 45 101 -8 15 -22 19 -60 19 l-50 0 0 -96z"/>
<path d="M792 458 c-6 -51 -9 -94 -7 -96 13 -14 35 11 35 40 0 56 15 64 33 18
20 -51 40 -51 57 0 7 22 17 40 21 40 4 0 9 -21 11 -47 2 -37 7 -49 21 -51 17
-3 18 2 12 55 -13 120 -16 134 -32 131 -9 -2 -25 -27 -36 -55 -11 -29 -23 -50
-27 -48 -4 3 -16 27 -26 55 -12 32 -24 50 -34 50 -14 0 -19 -18 -28 -92z"/>
<path d="M1037 466 c-15 -46 -27 -89 -27 -95 0 -21 31 -11 40 14 6 17 17 25
33 25 16 0 28 -9 35 -25 13 -29 47 -35 38 -7 -3 9 -16 51 -29 92 -18 56 -28
76 -43 78 -16 2 -24 -11 -47 -82z"/>
<path d="M1538 540 c-23 -14 -41 -74 -33 -110 8 -36 48 -70 82 -70 14 0 38 13
55 30 27 28 30 36 25 76 -6 58 -30 84 -76 84 -20 0 -44 -5 -53 -10z"/>
<path d="M1717 520 c-4 -16 -9 -59 -13 -95 -6 -56 -5 -65 9 -65 16 0 23 17 30
75 l4 30 18 -42 c10 -24 24 -43 32 -43 8 0 22 19 31 41 13 34 17 38 23 23 4
-11 8 -34 8 -51 1 -27 5 -33 22 -33 17 0 20 5 15 28 -3 15 -8 57 -12 95 -5 54
-10 67 -23 67 -11 0 -23 -17 -35 -50 -10 -28 -21 -52 -25 -55 -4 -2 -18 20
-30 50 -25 61 -45 70 -54 25z"/>
</g>
</svg>
